<svg xmlns="http://www.w3.org/2000/svg" viewBox="0 0 100 100" width="100" height="100">
  <!-- Fond avec dégradé subtil -->
  <defs>
    <linearGradient id="bgGradient" x1="0%" y1="0%" x2="100%" y2="100%">
      <stop offset="0%" stop-color="#0a0b1e" />
      <stop offset="100%" stop-color="#12142a" />
    </linearGradient>
    
    <!-- Dégradé principal pour les éléments du cerveau -->
    <linearGradient id="brainGradient" x1="0%" y1="0%" x2="100%" y2="100%">
      <stop offset="0%" stop-color="#6366f1" />
      <stop offset="50%" stop-color="#8b5cf6" />
      <stop offset="100%" stop-color="#ec4899" />
    </linearGradient>
    
    <!-- Lueur subtile pour l'effet de brillance -->
    <filter id="glow" x="-20%" y="-20%" width="140%" height="140%">
      <feGaussianBlur stdDeviation="2" result="blur" />
      <feComposite in="SourceGraphic" in2="blur" operator="over" />
    </filter>
  </defs>
  
  <!-- Arrière-plan -->
  <rect width="100" height="100" rx="20" fill="url(#bgGradient)" />
  
  <!-- Représentation abstraite du cerveau/pensées -->
  <g filter="url(#glow)">
    <!-- Connexions neuronales -->
    <path d="M30,50 C40,30 60,70 70,50" stroke="url(#brainGradient)" stroke-width="2" fill="none" opacity="0.7" />
    <path d="M20,40 C40,60 60,40 80,60" stroke="url(#brainGradient)" stroke-width="2" fill="none" opacity="0.7" />
    <path d="M40,30 C50,50 60,30 50,70" stroke="url(#brainGradient)" stroke-width="2" fill="none" opacity="0.7" />
    
    <!-- Nœuds/synapses -->
    <circle cx="30" cy="50" r="4" fill="url(#brainGradient)" />
    <circle cx="70" cy="50" r="4" fill="url(#brainGradient)" />
    <circle cx="20" cy="40" r="3" fill="url(#brainGradient)" />
    <circle cx="80" cy="60" r="3" fill="url(#brainGradient)" />
    <circle cx="40" cy="30" r="3" fill="url(#brainGradient)" />
    <circle cx="50" cy="70" r="5" fill="url(#brainGradient)" />
    <circle cx="60" cy="30" r="3" fill="url(#brainGradient)" />
    
    <!-- Point central - représentant le siège de la conscience -->
    <circle cx="50" cy="50" r="8" fill="url(#brainGradient)" />
  </g>
  
  <!-- Contour subtil pour définir les limites -->
  <rect width="98" height="98" x="1" y="1" rx="19" stroke="rgba(255,255,255,0.1)" stroke-width="1" fill="none" />
</svg>
